<svg xmlns="http://www.w3.org/2000/svg" width="512" height="512">
	<g fill="#ADADAD">
		<ellipse cx="108.183" cy="201.546" rx="8.906" ry="7.454"/>
		<ellipse cx="404.655" cy="201.546" rx="8.906" ry="7.454"/>
		<path d="M108 194h296v15H108z"/>
	</g>
	<g fill="#ADADAD">
		<ellipse cx="108.183" cy="231.546" rx="8.906" ry="7.454"/>
		<ellipse cx="404.655" cy="231.546" rx="8.906" ry="7.454"/>
		<path d="M108 224h296v15H108z"/>
	</g>
	<g fill="#ADADAD">
		<ellipse cx="108.183" cy="261.547" rx="8.906" ry="7.453"/>
		<ellipse cx="404.655" cy="261.547" rx="8.906" ry="7.453"/>
		<path d="M108 254h296v15H108z"/>
	</g>
	<g fill="#ADADAD">
		<ellipse cx="108.183" cy="291.547" rx="8.906" ry="7.453"/>
		<ellipse cx="404.655" cy="291.547" rx="8.906" ry="7.453"/>
		<path d="M108 284h296v15H108z"/>
	</g>
	<g fill="#ADADAD">
		<ellipse cx="108.183" cy="321.547" rx="8.906" ry="7.453"/>
		<ellipse cx="404.655" cy="321.547" rx="8.906" ry="7.453"/>
		<path d="M108 314h296v15H108z"/>
	</g>
	<g fill="#ADADAD">
		<ellipse cx="108.183" cy="351.547" rx="8.906" ry="7.453"/>
		<ellipse cx="404.655" cy="351.547" rx="8.906" ry="7.453"/>
		<path d="M108 344h296v15H108z"/>
	</g>
	<g fill="#E6E6E6">
		<ellipse cx="108.183" cy="171.546" rx="8.906" ry="7.454"/>
		<ellipse cx="404.655" cy="171.546" rx="8.906" ry="7.454"/>
		<path d="M108 164h296v15H108z"/>
	</g>
</svg>