<svg xmlns="http://www.w3.org/2000/svg" width="512" height="512">
	<g fill="#ADADAD">
		<ellipse cx="157.312" cy="256.263" rx="55.78" ry="53.766"/>
		<ellipse cx="355.312" cy="256.263" rx="55.78" ry="53.766"/>
		<path d="M157 202h198v108H157z"/>
		<g>
			<ellipse cx="225.312" cy="199.263" rx="55.78" ry="53.766"/>
			<ellipse cx="423.312" cy="199.263" rx="55.78" ry="53.766"/>
			<path d="M225 145h198v108H225z"/>
		</g>
	</g>
	<g fill="#E6E6E6">
		<ellipse cx="94.312" cy="322.263" rx="55.78" ry="53.766"/>
		<ellipse cx="292.312" cy="322.263" rx="55.78" ry="53.766"/>
		<path d="M94 268h198v108H94z"/>
		<g>
			<ellipse cx="182.312" cy="283.263" rx="55.78" ry="53.766"/>
			<ellipse cx="380.312" cy="283.263" rx="55.78" ry="53.766"/>
			<path d="M182 229h198v108H182z"/>
		</g>
	</g>
	<g fill="#66AAD7">
		<path d="M127 399.087c0 2.714-2.2 4.913-4.914 4.913h-.173c-2.714 0-4.914-2.199-4.914-4.913v-52.174c0-2.714 2.2-4.913 4.914-4.913h.173c2.714 0 4.914 2.199 4.914 4.913v52.174zM170 455.087c0 2.714-2.2 4.913-4.914 4.913h-.173c-2.714 0-4.914-2.199-4.914-4.913v-52.174c0-2.714 2.2-4.913 4.914-4.913h.173c2.714 0 4.914 2.199 4.914 4.913v52.174zM235 424.087c0 2.714-2.2 4.913-4.914 4.913h-.173c-2.714 0-4.914-2.199-4.914-4.913v-52.174c0-2.714 2.2-4.913 4.914-4.913h.173c2.714 0 4.914 2.199 4.914 4.913v52.174zM302 399.087c0 2.714-2.199 4.913-4.914 4.913h-.172c-2.715 0-4.914-2.199-4.914-4.913v-52.174c0-2.714 2.199-4.913 4.914-4.913h.172c2.715 0 4.914 2.199 4.914 4.913v52.174z"/>
	</g>
</svg>