<svg xmlns="http://www.w3.org/2000/svg" width="512" height="512">
	<g fill="#ADADAD">
		<ellipse cx="157.312" cy="256.263" rx="55.78" ry="53.766"/>
		<ellipse cx="355.312" cy="256.263" rx="55.78" ry="53.766"/>
		<path d="M157 202h198v108H157z"/>
		<g>
			<ellipse cx="225.312" cy="199.263" rx="55.78" ry="53.766"/>
			<ellipse cx="423.312" cy="199.263" rx="55.78" ry="53.766"/>
			<path d="M225 145h198v108H225z"/>
		</g>
	</g>
	<g fill="#E6E6E6">
		<ellipse cx="94.312" cy="322.263" rx="55.78" ry="53.766"/>
		<ellipse cx="292.312" cy="322.263" rx="55.78" ry="53.766"/>
		<path d="M94 268h198v108H94z"/>
		<g>
			<ellipse cx="182.312" cy="283.263" rx="55.78" ry="53.766"/>
			<ellipse cx="380.312" cy="283.263" rx="55.78" ry="53.766"/>
			<path d="M182 229h198v108H182z"/>
		</g>
	</g>
	<g fill="#AACBE0">
		<circle cx="121.523" cy="372.72" r="8.523"/>
		<circle cx="164.523" cy="428.72" r="8.523"/>
		<circle cx="220.523" cy="400.72" r="8.523"/>
		<circle cx="269.523" cy="445.72" r="8.523"/>
		<circle cx="296.523" cy="372.72" r="8.523"/>
	</g>
</svg>