<svg xmlns="http://www.w3.org/2000/svg" width="512" height="512">
	<g fill="#ADADAD">
		<ellipse cx="157.312" cy="256.263" rx="55.78" ry="53.766"/>
		<ellipse cx="355.312" cy="256.263" rx="55.78" ry="53.766"/>
		<path d="M157 202h198v108H157z"/>
		<g>
			<ellipse cx="225.312" cy="199.263" rx="55.78" ry="53.766"/>
			<ellipse cx="423.312" cy="199.263" rx="55.78" ry="53.766"/>
			<path d="M225 145h198v108H225z"/>
		</g>
	</g>
	<g fill="#E6E6E6">
		<ellipse cx="94.312" cy="322.263" rx="55.78" ry="53.766"/>
		<ellipse cx="292.312" cy="322.263" rx="55.78" ry="53.766"/>
		<path d="M94 268h198v108H94z"/>
		<g>
			<ellipse cx="182.312" cy="283.263" rx="55.78" ry="53.766"/>
			<ellipse cx="380.312" cy="283.263" rx="55.78" ry="53.766"/>
			<path d="M182 229h198v108H182z"/>
		</g>
	</g>
	<g fill="#EDCC40">
		<path stroke="#EDCC40" stroke-width="27" stroke-miterlimit="10" d="M173.15 330.028l-16.819 76.021"/>
		<path d="M177.196 379.606l-24.254 84.011M194.01 384.461l-41.068 79.156 7.441-88.865z"/>
		<g>
			<path stroke="#EDCC40" stroke-width="27" stroke-miterlimit="10" d="M279.474 328.063l-19.585 88.52"/>
			<path d="M284.185 385.793l-28.243 97.824M300.998 390.647l-45.056 92.97 11.429-102.679z"/>
		</g>
	</g>
</svg>