<?xml version="1.0" encoding="utf-8"?>
<!-- Generator: Adobe Illustrator 16.0.0, SVG Export Plug-In . SVG Version: 6.00 Build 0)  -->
<!DOCTYPE svg PUBLIC "-//W3C//DTD SVG 1.1//EN" "http://www.w3.org/Graphics/SVG/1.1/DTD/svg11.dtd">
<svg version="1.1" xmlns="http://www.w3.org/2000/svg" xmlns:xlink="http://www.w3.org/1999/xlink" x="0px" y="0px" width="512px"
	 height="512px" viewBox="0 0 512 512" enable-background="new 0 0 512 512" xml:space="preserve">
<g id="Layer_2">
	<g>
		<ellipse fill="#ADADAD" cx="157.312" cy="256.263" rx="55.78" ry="53.766"/>
		<ellipse fill="#ADADAD" cx="355.312" cy="256.263" rx="55.78" ry="53.766"/>
		<rect x="157" y="202" fill="#ADADAD" width="198" height="108"/>
	</g>
	<g>
		<ellipse fill="#ADADAD" cx="225.312" cy="199.263" rx="55.78" ry="53.766"/>
		<ellipse fill="#ADADAD" cx="423.312" cy="199.263" rx="55.78" ry="53.766"/>
		<rect x="225" y="145" fill="#ADADAD" width="198" height="108"/>
	</g>
</g>
<g id="Layer_3">
	<g>
		<ellipse fill="#E6E6E6" cx="94.312" cy="322.263" rx="55.78" ry="53.766"/>
		<ellipse fill="#E6E6E6" cx="292.312" cy="322.263" rx="55.78" ry="53.766"/>
		<rect x="94" y="268" fill="#E6E6E6" width="198" height="108"/>
	</g>
	<g>
		<ellipse fill="#E6E6E6" cx="182.312" cy="283.263" rx="55.78" ry="53.766"/>
		<ellipse fill="#E6E6E6" cx="380.312" cy="283.263" rx="55.78" ry="53.766"/>
		<rect x="182" y="229" fill="#E6E6E6" width="198" height="108"/>
	</g>
</g>
<g id="Layer_4">
	<g>
		
			<line fill="#EDCC40" stroke="#EDCC40" stroke-width="27" stroke-miterlimit="10" x1="173.15" y1="330.028" x2="156.331" y2="406.049"/>
		<g>
			<line fill="#EDCC40" x1="177.196" y1="379.606" x2="152.942" y2="463.617"/>
			<polygon fill="#EDCC40" points="194.01,384.461 152.942,463.617 160.383,374.752 			"/>
		</g>
	</g>
	<g>
		
			<line fill="#EDCC40" stroke="#EDCC40" stroke-width="27" stroke-miterlimit="10" x1="279.474" y1="328.063" x2="259.889" y2="416.583"/>
		<g>
			<line fill="#EDCC40" x1="284.185" y1="385.793" x2="255.942" y2="483.617"/>
			<polygon fill="#EDCC40" points="300.998,390.647 255.942,483.617 267.371,380.938 			"/>
		</g>
	</g>
</g>
</svg>
